<?xml version="1.0" encoding="utf-8"?>
<!-- Generator: Adobe Illustrator 16.0.0, SVG Export Plug-In . SVG Version: 6.00 Build 0)  -->
<!DOCTYPE svg PUBLIC "-//W3C//DTD SVG 1.1//EN" "http://www.w3.org/Graphics/SVG/1.1/DTD/svg11.dtd">
<svg version="1.1" id="Layer_1" xmlns="http://www.w3.org/2000/svg" xmlns:xlink="http://www.w3.org/1999/xlink" x="0px" y="0px"
	 width="720px" height="503.999px" viewBox="0 0 720 503.999" enable-background="new 0 0 720 503.999" xml:space="preserve">
<symbol  id="New_Symbol" viewBox="-0.763 -0.763 1.526 1.525">
	<path fill="#FFFFFF" d="M0.763,0c0-0.421-0.342-0.762-0.763-0.762S-0.763-0.421-0.763,0S-0.421,0.763,0,0.763S0.763,0.42,0.763,0z"
		/>
</symbol>
<rect fill="#FFFFFF" width="720" height="503.999"/>
<path fill="#DDDAD9" d="M38.947,351.155c53.177,84.497,172.218,143.354,310.554,143.354c138.335,0,257.376-58.856,310.554-143.354
	H38.947z"/>
<path fill="#EAE7E4" d="M689.712,251.999c0-133.934-152.318-242.509-340.211-242.509c-187.894,0-340.21,108.575-340.21,242.509
	c0,35.327,10.606,68.886,29.657,99.156h621.107C679.106,320.885,689.712,287.326,689.712,251.999z"/>
<ellipse fill="#EDEBE4" cx="368.61" cy="419.666" rx="213.802" ry="34.667"/>
<polygon fill="#FFFFFF" points="666.785,344.993 35.809,344.993 42.905,357.319 656.541,357.319 "/>
<g>
	<polygon fill="#272117" points="174.525,379.598 173.017,378.152 193.198,360.486 194.707,361.932 	"/>
</g>
<polygon fill="#D7B896" points="465.772,256.145 166.42,256.145 186.088,249.905 460.805,249.905 "/>
<polygon fill="#100D0A" points="175.322,280.007 168.698,280.007 168.698,304.647 175.322,298.578 "/>
<polygon fill="#23211F" points="168.698,304.647 168.698,416.791 175.322,416.791 175.322,298.578 "/>
<rect x="193.126" y="280.007" fill="#100D0A" width="5.796" height="114.637"/>
<g>
	<path fill="#100D0A" d="M463.772,280.007h-5.501v25.54c1.816-1.815,3.639-3.624,5.501-5.395V280.007z"/>
	<path fill="#2D2B29" d="M458.271,305.547v112.804h5.501V300.152C461.91,301.923,460.088,303.731,458.271,305.547z"/>
</g>
<g>
	<path fill="#100D0A" d="M455.521,284.296h-5.501v21.611c1.816-1.536,3.639-3.066,5.501-4.564V284.296z"/>
	<path fill="#100D0A" d="M450.02,305.907v95.453h5.501V301.343C453.658,302.841,451.836,304.371,450.02,305.907z"/>
</g>
<rect x="166.42" y="256.145" fill="#D0A986" width="299.352" height="30.429"/>
<rect x="198.922" y="359.396" fill="#272117" width="260.846" height="3.431"/>
<g>
	<path fill="#AF8A6E" d="M463.315,284.072H169.244v-25.344h294.071V284.072z M170.335,283.072h291.888v-23.344H170.335V283.072z"/>
</g>
<g>
	<polygon opacity="0.1" fill="#272117" points="578.84,394.407 611,357.319 577.254,357.319 	"/>
	<g>
		<g>
			<g>
				<path fill="#72553F" d="M513.02,332.319l0.722,0.053l-0.722-0.055l0.722,0.055l0.722,0.053c0.014-0.188,0.246-4.015-2.575-8.195
					c-0.675-0.036-1.347-0.125-2.015-0.269C513.25,328.125,513.021,332.274,513.02,332.319z"/>
				<path fill="#72553F" d="M515.261,324.019c0.624,1.328,1.021,2.674,1.111,4.012l1.443-0.103c-0.099-1.431-0.48-2.847-1.079-4.229
					C516.248,323.826,515.755,323.934,515.261,324.019z"/>
				<path fill="#A98764" d="M496.309,306.672c-3.92-0.921-4.754,0.35-4.931,0.938c-0.3,0.995,0.549,2.046,2.158,2.672
					c2.178,0.848,10.549,7.56,15.475,12.699c0.312,0.325,0.598,0.653,0.862,0.979c0.668,0.144,1.34,0.232,2.015,0.269
					c-0.508-0.752-1.115-1.517-1.841-2.274c-4.87-5.083-13.392-12.034-15.993-13.046c-0.892-0.349-1.205-0.73-1.272-0.871
					c0.192-0.147,1.066-0.434,3.202,0.067c4.119,0.967,15.625,8.127,19.277,15.913c0.494-0.085,0.987-0.192,1.476-0.319
					C512.96,314.994,500.551,307.666,496.309,306.672z"/>
			</g>
			<g>
				<path fill="#72553F" d="M571.384,329.001l1.397-0.381c-0.012-0.044-1.089-4.335,1.832-9.308
					c-0.594,0.103-1.19,0.185-1.787,0.248C570.279,324.617,571.332,328.807,571.384,329.001z"/>
				<path fill="#A98764" d="M589.492,300.23c-0.283-0.545-1.336-1.634-5.018,0.016c-3.863,1.732-13.442,10.684-16.442,19.385
					c0.499,0.038,0.996,0.064,1.494,0.074c2.972-8.075,12.008-16.532,15.532-18.111c2.004-0.897,2.917-0.784,3.133-0.676
					c-0.04,0.15-0.276,0.586-1.089,1.097c-2.37,1.49-9.46,9.94-13.31,15.86c-0.371,0.57-0.689,1.133-0.967,1.686
					c0.597-0.063,1.193-0.146,1.787-0.248c0.124-0.206,0.25-0.415,0.386-0.626c3.894-5.986,10.882-14.173,12.864-15.42
					C589.328,302.344,589.968,301.152,589.492,300.23z"/>
				<path fill="#72553F" d="M568.032,319.631c-0.733,2.129-1.075,4.244-0.84,6.234l1.436-0.175c-0.223-1.89,0.14-3.925,0.898-5.985
					C569.028,319.695,568.531,319.669,568.032,319.631z"/>
			</g>
			<path fill="#99765C" d="M508.607,367.112c1.412-12.204,3.852-23.358,3.968-35.511c-0.614-0.209-1.2-0.433-1.747-0.673v4.904
				c0,0-4.916,17.286-5.156,18.144c-0.241,0.858-4.583,6.377-5.064,7.848s1.688,4.903,2.412,6.743
				c0.724,1.839,2.652,16.919,5.063,21.454c2.412,4.537,5.063,7.356,5.063,7.356s5.282,3.288,15.998,5.188
				c-0.215-0.049-0.429-0.094-0.642-0.144C512.226,398.375,506.438,382.561,508.607,367.112z"/>
			<path fill="#A98764" d="M576.932,347.408c-0.35-1.396-4.259-13.877-9.076-17.247l-25.773,4.109c0,0-19.165,0.845-29.507-2.669
				c-0.116,12.152-2.992,23.214-4.404,35.418c-2.171,15.448,4.055,31.355,20.332,35.402c0.213,0.05,0.427,0.095,0.642,0.144
				c4.484,0.795,9.913,1.348,16.316,1.312c9.427-0.055,23.447-3.02,28.511-5.471c0.282-0.137,3.233-1.66,3.509-1.828
				C587.099,382.574,583.849,363.163,576.932,347.408z"/>
			<path fill="#A07D5F" d="M587.541,360.23c-0.842-2.331-4.854-7.011-5.665-9.073c-0.785-1.992-5.065-18.785-5.065-18.785
				l-0.481-3.562l-8.474,1.351c4.817,3.37,8.231,16.463,8.396,17.457c4.718,10.749,4.167,25.359-0.652,36.262
				c-7.009,15.853-17.857,17.569-26.077,19.83c32.7-1.313,34.422-15.065,34.764-17.611c0.363-2.696,0.363-17.163,1.085-18.67
				C586.096,365.923,588.386,362.56,587.541,360.23z"/>
			<path fill="#5E4838" d="M572.403,330.627c1.894-0.549,3.277-1.153,3.926-1.816c3.951-4.047-28.336-4.85-35.984-4.319
				c-7.41,0.514-22.021,2.207-28.232,5.149c-2.782,1.317-0.729,2.341,3.16,3.101C533.611,326.725,553.658,326.184,572.403,330.627z"
				/>
			<path fill="#402A1A" d="M515.272,332.741c4.796,0.938,12.386,1.478,17.167,1.681c7.24,0.308,30.294-0.994,39.964-3.795
				C553.658,326.184,533.611,326.725,515.272,332.741z"/>
			<g>
				<path fill="#8E6F54" d="M539.999,340.28c-15.967,0-29.077-4.233-29.216-4.27l0.089-0.356c0.152,0.038,15.278,3.912,32.862,3.304
					c16.481-0.567,30.303-4.299,32.955-6.725l0.242,0.275c-2.695,2.462-16.514,7.201-33.075,7.771
					C542.579,340.325,541.246,340.28,539.999,340.28z"/>
			</g>
		</g>
		<path fill="#99765C" d="M503.082,368.938c0,0,11.23,4.837,32.726,6.062c13.57,0.773,29.538-2.438,49.421-7.056
			c0,0-0.02-0.146-0.238,2.074s-29.322,7.999-49.652,6.981c-19.845-0.993-31.759-6.515-31.759-6.515l-0.403-0.985"/>
	</g>
	<g>
		<g>
			<path fill="#47591F" d="M557.418,267.862c-1.176,2.755-4.496,11.113-3.473,15.515c0.997,4.286,3.361,8.538,4.243,10.03
				c2.912-5.437,4.477-11.301,5.403-17.354c-0.153,0.025-0.308,0.051-0.467,0.066C560.898,276.398,557.91,272.091,557.418,267.862z"
				/>
			<path fill="#4E6327" d="M565.623,244.437c-2.938-0.96-4.678-0.842-5.371,0.772c-1.294,3.01-5.372,9.221-2.434,21.742
				c0,0-0.154,0.336-0.4,0.911c0.492,4.229,3.48,8.536,5.707,8.258c0.159-0.016,0.313-0.041,0.467-0.066
				c1.583-10.331,1.31-21.216,2.696-31.484C566.066,244.549,565.845,244.508,565.623,244.437z"/>
			<path fill="#819945" d="M571.656,266.779c-0.025-0.462-0.076-0.873-0.153-1.297c-0.406-2.229,3.084-9.732,1.419-16.505
				c-0.813-3.308-1.464-4.059-3.954-4.528c-0.681-0.128-1.67,0.214-2.68,0.12c-1.387,10.269-1.113,21.153-2.696,31.484
				C567.499,275.366,569.589,271.167,571.656,266.779z"/>
			<path fill="#7D913F" d="M563.592,276.054c-0.927,6.053-2.491,11.917-5.403,17.354c0.212,0.358,0.34,0.56,0.34,0.56
				s10.845-3.066,11.961-13.697c0.904-8.616,1.274-11.514,1.167-13.49C569.589,271.167,567.499,275.366,563.592,276.054z"/>
			
				<ellipse transform="matrix(-0.9848 -0.1735 0.1735 -0.9848 1080.135 588.4377)" fill="#3C4009" cx="565.782" cy="247.018" rx="0.488" ry="0.976"/>
			
				<ellipse transform="matrix(-0.9849 -0.1732 0.1732 -0.9849 1081.4385 583.9495)" fill="#3C4009" cx="566.19" cy="244.804" rx="0.488" ry="0.394"/>
			
				<ellipse transform="matrix(-0.9975 -0.071 0.071 -0.9975 1111.2632 542.1768)" fill="#3C4009" cx="565.272" cy="251.329" rx="0.488" ry="0.976"/>
			
				<ellipse transform="matrix(-0.9975 -0.071 0.071 -0.9975 1110.9268 551.6365)" fill="#3C4009" cx="565.272" cy="256.065" rx="0.488" ry="0.977"/>
			
				<ellipse transform="matrix(-0.9975 -0.0701 0.0701 -0.9975 1109.8741 560.9087)" fill="#3C4009" cx="564.78" cy="260.978" rx="0.488" ry="0.975"/>
			
				<ellipse transform="matrix(-0.9975 -0.0711 0.0711 -0.9975 1109.2598 570.2866)" fill="#3C4009" cx="564.78" cy="265.4" rx="0.488" ry="0.977"/>
			
				<ellipse transform="matrix(-0.9975 -0.07 0.07 -0.9975 1108.2886 578.6422)" fill="#3C4009" cx="564.289" cy="269.892" rx="0.488" ry="0.976"/>
			
				<ellipse transform="matrix(-0.9999 -0.014 0.014 -0.9999 1123.6887 557.4672)" fill="#3C4009" cx="563.797" cy="274.797" rx="0.488" ry="0.977"/>
			
				<ellipse transform="matrix(-0.9896 -0.1439 0.1439 -0.9896 1079.5227 637.4572)" fill="#3C4009" cx="562.82" cy="279.679" rx="0.488" ry="0.975"/>
			
				<ellipse transform="matrix(-0.9539 -0.3003 0.3003 -0.9539 1012.2719 724.5956)" fill="#3C4009" cx="561.814" cy="284.515" rx="0.488" ry="0.977"/>
			
				<ellipse transform="matrix(-0.9539 -0.3003 0.3003 -0.9539 1007.1505 734.5742)" fill="#3C4009" cx="560.02" cy="289.897" rx="0.488" ry="0.977"/>
		</g>
		<path fill="#333618" d="M552.877,306.12c2.501-7.507,3.477-15.267,1.768-22.814c-2.327-2.962-2.945-7.388-2.945-7.388
			l-9.592,17.806c5.344,4.352,6.138,12.283,3.774,18.783c-0.912,2.737-4.258,4.257-5.169,7.297c-1.208,4.312-0.652,9.6,1.716,13.427
			c2.829,0.189,7.022,0.379,10.244,0.128c1.179-6.023-0.749-12.57-3.142-18.42C548.315,311.29,551.66,309.161,552.877,306.12z"/>
		<path fill="#2F3015" d="M540.713,319.804c0.911-3.04,4.257-4.56,5.169-7.297c2.363-6.5,1.569-14.432-3.774-18.783l-1.834,3.405
			c0,0,9.349,1.437,0,14.742c-9.349,13.307-0.99,21.107-0.99,21.107s1.274,0.126,3.146,0.252
			C540.061,329.403,539.505,324.116,540.713,319.804z"/>
		<path fill="#353F1D" d="M553.88,310.374c3.649-2.939,5.626-13.633,6.056-16.127c0.429-2.491,0.372-6.779-3.471-9.246
			c-0.7-0.449-1.302-1.036-1.82-1.695c1.709,7.548,0.733,15.308-1.768,22.814c-1.217,3.041-4.562,5.17-3.346,8.818
			c2.393,5.85,4.32,12.396,3.142,18.42c2.471-0.19,4.369-0.64,4.636-1.546c1.666-5.658-3.125-13.481-4.493-15.51
			C551.446,314.274,550.231,313.314,553.88,310.374z"/>
		<path fill="#333618" d="M532.502,324.365c2.736-9.427,4.257-19.766-1.521-28.889c-1.936-3.042-3.365-6.337-3.838-10.109
			c-0.937,1.418-1.74,3.168-1.748,5.014c-0.025,5.796,0.76,11.496,2.527,13.55c1.986,2.305,4.945,2.839,5.049,6.285
			c0.104,3.445-4.979,15.115-2.944,19.722c0.745,1.688,2.13,2.43,3.586,2.692C532.14,330.345,531.727,327.001,532.502,324.365z"/>
		<path fill="#353F1D" d="M538.852,332.11c0,0-3.899-12.8-0.173-15.611c5.51-4.156,6.66-12.771,5.411-16.825
			c-0.944-3.062-9.155-19.476-14.062-17.621c0,0-1.571,1.327-2.884,3.314c0.473,3.772,1.902,7.067,3.838,10.109
			c5.777,9.123,4.257,19.462,1.521,28.889c-0.775,2.636-0.362,5.979,1.111,8.265C536.128,333.085,538.852,332.11,538.852,332.11z"/>
		<g>
			<path fill="#4C5E2D" d="M535.05,244.016c-2.235,3.28-0.724,11.963-1.428,16.029c1.768,3.375,4.464,7.303,7.805,8.477
				c-0.481-10.68-1.161-21.28-1.872-25.904C539.555,242.618,537.331,240.671,535.05,244.016z"/>
			<path fill="#414F25" d="M533.622,260.045c-0.014,0.08-0.026,0.164-0.043,0.24c-0.809,3.953-3.698,14.141-3.546,17.182
				c0.151,3.042,5.93,12.772,7.45,15.813c1.521,3.04,1.906,3.395,2.359,3.678c1.052,0.662,1.402,0.678,2.476,0.633
				c0.507-0.021-0.239-14.642-0.892-29.069C538.086,267.348,535.39,263.42,533.622,260.045z"/>
			<path fill="#6D8347" d="M541.893,242.192c0,0-2.281-1.217-3.041,1.976c-0.76,3.193,1.217,21.439,1.521,24.633
				c0.305,3.192,1.864,25.538,1.671,28.062c-0.17,2.227,1.979-1.303,1.979-1.303s0.151-27.217,0-32.689
				C543.869,257.396,541.893,242.192,541.893,242.192z"/>
			<path fill="#82944A" d="M541.893,242.192c-0.505,2.103,0.271,13.812,1.025,26.29c3.267-1.21,6.119-3.138,8.514-5.537
				c-0.006-4.646-0.118-8.847-0.416-11.174C550.256,245.84,542.806,238.39,541.893,242.192z"/>
			<path fill="#7C8945" d="M544.021,295.561c0,0,6.69-6.43,6.994-13.098c0.185-4.052,0.426-12.322,0.416-19.519
				c-2.395,2.399-5.247,4.327-8.514,5.537C543.527,278.559,544.123,289.134,544.021,295.561z"/>
			
				<ellipse transform="matrix(-0.995 -0.0996 0.0996 -0.995 1050.6731 541.4462)" fill="#3C4009" cx="538.853" cy="244.495" rx="0.488" ry="0.976"/>
			
				<ellipse transform="matrix(-0.8942 -0.4476 0.4476 -0.8942 918.4828 701.2762)" fill="#3C4009" cx="542.099" cy="242.117" rx="0.488" ry="0.774"/>
			
				<ellipse transform="matrix(-0.9951 0.0986 -0.0986 -0.9951 1099.6237 443.4588)" fill="#3C4009" cx="538.853" cy="248.905" rx="0.488" ry="0.976"/>
			
				<ellipse transform="matrix(-0.9952 0.0981 -0.0981 -0.9952 1099.9294 451.9288)" fill="#3C4009" cx="538.853" cy="253.01" rx="0.488" ry="0.975"/>
			
				<ellipse transform="matrix(-0.9952 0.098 -0.098 -0.9952 1101.4109 462.4023)" fill="#3C4009" cx="539.347" cy="258.256" rx="0.488" ry="0.975"/>
			
				<ellipse transform="matrix(-0.9996 -0.027 0.027 -0.9996 1072.3893 540.5654)" fill="#3C4009" cx="539.843" cy="263.045" rx="0.488" ry="0.976"/>
			
				<ellipse transform="matrix(-0.9996 -0.027 0.027 -0.9996 1073.24 549.2652)" fill="#3C4009" cx="540.331" cy="267.382" rx="0.488" ry="0.976"/>
			
				<ellipse transform="matrix(-0.9997 -0.026 0.026 -0.9997 1074.376 558.7575)" fill="#3C4009" cx="540.819" cy="272.396" rx="0.488" ry="0.975"/>
			
				<ellipse transform="matrix(-0.9996 -0.027 0.027 -0.9996 1074.9155 569.9597)" fill="#3C4009" cx="541.308" cy="277.718" rx="0.488" ry="0.976"/>
			
				<ellipse transform="matrix(-0.9988 0.049 -0.049 -0.9988 1096.002 539.4258)" fill="#3C4009" cx="541.384" cy="283.158" rx="0.488" ry="0.975"/>
			
				<ellipse transform="matrix(-0.9929 0.1191 -0.1191 -0.9929 1114.3048 511.3414)" fill="#3C4009" cx="541.872" cy="288.969" rx="0.488" ry="0.977"/>
			
				<ellipse transform="matrix(-0.9955 -0.0951 0.0951 -0.9955 1053.869 637.0053)" fill="#3C4009" cx="542.12" cy="293.379" rx="0.488" ry="0.976"/>
		</g>
		<g>
			<path fill="#82944A" d="M521.305,256.949c-0.86-2.946-1.368-5.802-0.698-7.437c1.316-3.219-2.23-24.506-5.171-21.06
				c-0.982,1.153-1.61,1.563-2.127,1.493c0.667,10.474,1.081,21.71,2.912,32.484C518.196,261.104,519.969,259.196,521.305,256.949z"
				/>
			<path fill="#767F3D" d="M513.309,229.945c-0.538-0.073-0.953-0.667-1.522-1.493c0,0-4.562,2.635-2.736,16.65
				c0.822,6.316,1.49,11.424,1.886,14.616c1.275,1.885,2.552,4.328,3.827,3.563c0.494-0.248,0.982-0.534,1.458-0.853
				C514.39,251.655,513.976,240.419,513.309,229.945z"/>
			<path fill="#767F3D" d="M516.221,262.43c-0.476,0.318-0.964,0.604-1.458,0.853c-1.275,0.765-2.552-1.679-3.827-3.563
				c0.167,1.344,0.284,2.351,0.344,2.962c0.204,2.062,0.305,7.214,0.711,9.351c0.404,2.138,6.977,16.795,11.353,18.053
				c2.129,0.61,2.124,0.199,2.433-0.508c0,0,0.016-0.038,0.044-0.101C520.662,281.429,517.867,272.116,516.221,262.43z"/>
			<path fill="#7C8945" d="M528.513,283.768c0.607-0.881-2.939-14.972-4.46-19.025c-0.749-1.996-1.914-4.938-2.748-7.793
				c-1.336,2.247-3.108,4.155-5.084,5.48c1.646,9.687,4.441,18.999,9.599,27.046C526.123,288.777,527.955,284.575,528.513,283.768z"
				/>
		</g>
		
			<ellipse transform="matrix(-0.9951 0.099 -0.099 -0.9951 1046.9004 409.8022)" fill="#3C4009" cx="513.282" cy="230.878" rx="0.488" ry="0.976"/>
		
			<ellipse transform="matrix(-0.9951 0.099 -0.099 -0.9951 1047.2349 416.5404)" fill="#3C4009" cx="513.282" cy="234.255" rx="0.488" ry="0.976"/>
		
			<ellipse transform="matrix(-0.9951 0.0991 -0.0991 -0.9951 1048.6372 424.4021)" fill="#3C4009" cx="513.777" cy="238.247" rx="0.488" ry="0.976"/>
		
			<ellipse transform="matrix(-0.995 0.0995 -0.0995 -0.995 1049.629 432.3078)" fill="#3C4009" cx="514.034" cy="242.329" rx="0.488" ry="0.976"/>
		
			<ellipse transform="matrix(-0.9951 0.0989 -0.0989 -0.9951 1050.3717 440.1458)" fill="#3C4009" cx="514.275" cy="246.11" rx="0.489" ry="0.976"/>
		
			<ellipse transform="matrix(-0.995 0.0995 -0.0995 -0.995 1051.8497 447.2664)" fill="#3C4009" cx="514.771" cy="249.864" rx="0.488" ry="0.976"/>
		
			<ellipse transform="matrix(-0.9951 0.099 -0.099 -0.9951 1052.679 455.9929)" fill="#3C4009" cx="515.025" cy="254.117" rx="0.488" ry="0.977"/>
		
			<ellipse transform="matrix(-0.9951 0.099 -0.099 -0.9951 1054.0605 463.8795)" fill="#3C4009" cx="515.52" cy="258.094" rx="0.488" ry="0.976"/>
		
			<ellipse transform="matrix(-0.9961 0.0881 -0.0881 -0.9961 1053.0894 477.1509)" fill="#3C4009" cx="516.015" cy="261.814" rx="0.488" ry="0.976"/>
		
			<ellipse transform="matrix(-0.9757 0.2189 -0.2189 -0.9757 1079.6833 412.1958)" fill="#3C4009" cx="517.003" cy="265.92" rx="0.488" ry="0.976"/>
		
			<ellipse transform="matrix(-0.9755 0.2201 -0.2201 -0.9755 1082.3552 419.117)" fill="#3C4009" cx="517.829" cy="269.856" rx="0.488" ry="0.976"/>
		
			<ellipse transform="matrix(-0.9594 0.2821 -0.2821 -0.9594 1093.4398 389.4941)" fill="#3C4009" cx="518.68" cy="273.464" rx="0.488" ry="0.977"/>
		
			<ellipse transform="matrix(-0.9594 0.2821 -0.2821 -0.9594 1096.6321 396.5676)" fill="#3C4009" cx="519.767" cy="277.23" rx="0.488" ry="0.975"/>
		
			<ellipse transform="matrix(-0.9332 0.3594 -0.3594 -0.9332 1108.8177 356.0777)" fill="#3C4009" cx="521.305" cy="281.125" rx="0.488" ry="0.976"/>
		
			<ellipse transform="matrix(-0.9265 0.3762 -0.3762 -0.9265 1114.5249 351.1429)" fill="#3C4009" cx="522.977" cy="284.395" rx="0.488" ry="0.976"/>
		
			<ellipse transform="matrix(-0.8638 0.5039 -0.5039 -0.8638 1122.2434 271.5067)" fill="#3C4009" cx="524.421" cy="287.452" rx="0.488" ry="0.976"/>
		
			<ellipse transform="matrix(-0.9555 0.2951 -0.2951 -0.9555 1150.4922 423.8317)" fill="#212104" cx="543.261" cy="298.739" rx="0.488" ry="0.975"/>
		
			<ellipse transform="matrix(-0.9988 -0.049 0.049 -0.9988 1072.6957 631.0356)" fill="#212104" cx="544.089" cy="302.359" rx="0.488" ry="0.976"/>
		
			<ellipse transform="matrix(-0.9577 0.2878 -0.2878 -0.9577 1116.1492 412.5733)" fill="#212104" cx="527.748" cy="288.33" rx="0.394" ry="0.749"/>
		
			<ellipse transform="matrix(-0.9573 0.2889 -0.2889 -0.9573 1118.7787 417.3918)" fill="#212104" cx="528.582" cy="291.272" rx="0.394" ry="0.748"/>
		
			<ellipse transform="matrix(-0.9072 0.4207 -0.4207 -0.9072 1134.5093 337.5274)" fill="#212104" cx="530.027" cy="293.895" rx="0.393" ry="0.747"/>
		<path fill="#212104" d="M531.081,296.426c0.176,0.375,0.475,0.604,0.671,0.514c0.198-0.092,0.218-0.47,0.045-0.845
			c-0.174-0.375-0.475-0.604-0.671-0.514C530.929,295.673,530.908,296.051,531.081,296.426z"/>
		
			<ellipse transform="matrix(-0.9527 0.3039 -0.3039 -0.9527 1131.6687 422.3001)" fill="#212104" cx="532.971" cy="299.217" rx="0.394" ry="0.747"/>
		
			<ellipse transform="matrix(-0.9806 0.1961 -0.1961 -0.9806 1116.9219 494.1217)" fill="#212104" cx="533.997" cy="302.359" rx="0.393" ry="0.748"/>
		<ellipse fill="#212104" cx="534.541" cy="305.654" rx="0.394" ry="0.748"/>
		<ellipse fill="#212104" cx="534.935" cy="308.55" rx="0.394" ry="0.748"/>
		
			<ellipse transform="matrix(-0.9962 -0.087 0.087 -0.9962 1040.7362 668.8305)" fill="#212104" cx="534.935" cy="311.749" rx="0.393" ry="0.747"/>
		
			<ellipse transform="matrix(-0.9963 -0.0856 0.0856 -0.9963 1040.1774 673.9838)" fill="#212104" cx="534.541" cy="314.688" rx="0.394" ry="0.748"/>
		
			<ellipse transform="matrix(-0.9837 -0.1801 0.1801 -0.9837 1002.3564 726.3075)" fill="#212104" cx="534.147" cy="317.654" rx="0.393" ry="0.748"/>
		
			<ellipse transform="matrix(-0.9835 -0.1811 0.1811 -0.9835 999.9143 732.8977)" fill="#212104" cx="533.41" cy="320.809" rx="0.394" ry="0.748"/>
		
			<ellipse transform="matrix(-0.9527 -0.3039 0.3039 -0.9527 941.3807 794.6711)" fill="#212104" cx="532.532" cy="324.077" rx="0.394" ry="0.748"/>
		
			<ellipse transform="matrix(-0.9907 0.1363 -0.1363 -0.9907 1103.634 578.9748)" fill="#212104" cx="531.989" cy="327.283" rx="0.283" ry="0.747"/>
		
			<ellipse transform="matrix(-0.9494 0.3142 -0.3142 -0.9494 1141.8485 476.4417)" fill="#212104" cx="532.533" cy="330.229" rx="0.283" ry="0.748"/>
		<path fill="#212104" d="M543.615,305.539c-0.127,0.523-0.019,0.999,0.241,1.062c0.265,0.064,0.579-0.309,0.707-0.832
			c0.127-0.525,0.019-0.999-0.243-1.063S543.743,305.016,543.615,305.539z"/>
		
			<ellipse transform="matrix(-0.9714 -0.2373 0.2373 -0.9714 1019.866 727.9412)" fill="#111102" cx="553.753" cy="302.578" rx="0.488" ry="0.977"/>
		
			<ellipse transform="matrix(-0.9923 -0.1242 0.1242 -0.9923 1068.231 661.0039)" fill="#111102" cx="554.712" cy="297.216" rx="0.488" ry="0.976"/>
		
			<ellipse transform="matrix(-0.9921 -0.1251 0.1251 -0.9921 1070.1851 652.0412)" fill="#111102" cx="555.573" cy="292.407" rx="0.488" ry="0.976"/>
		
			<ellipse transform="matrix(-0.8518 -0.5239 0.5239 -0.8518 861.4861 858.5177)" fill="#111102" cx="552.181" cy="307.401" rx="0.488" ry="0.976"/>
		
			<ellipse transform="matrix(-0.8578 -0.5139 0.5139 -0.8578 861.9884 860.4445)" fill="#111102" cx="550" cy="311.003" rx="0.488" ry="0.765"/>
		
			<ellipse transform="matrix(-0.9264 0.3766 -0.3766 -0.9264 1178.2953 400.5394)" fill="#111102" cx="550" cy="315.435" rx="0.488" ry="0.765"/>
		
			<ellipse transform="matrix(-0.8602 0.51 -0.51 -0.8602 1187.459 311.2036)" fill="#111102" cx="551.066" cy="318.393" rx="0.418" ry="0.766"/>
		
			<ellipse transform="matrix(-0.9993 0.0385 -0.0385 -0.9993 1116.3564 623.1971)" fill="#111102" cx="552.181" cy="322.341" rx="0.419" ry="0.766"/>
		
			<ellipse transform="matrix(-0.9976 0.0699 -0.0699 -0.9976 1126.6226 611.808)" fill="#111102" cx="552.604" cy="325.622" rx="0.419" ry="0.766"/>
		
			<ellipse transform="matrix(-0.9966 0.0829 -0.0829 -0.9966 1131.809 611.1157)" fill="#111102" cx="553.225" cy="329.042" rx="0.418" ry="0.765"/>
		
			<ellipse transform="matrix(-0.9967 0.0817 -0.0817 -0.9967 1131.7231 617.6702)" fill="#111102" cx="553.226" cy="331.987" rx="0.418" ry="0.764"/>
		
			<ellipse transform="matrix(-0.9713 -0.2381 0.2381 -0.9713 996.5448 739.3611)" fill="#212104" cx="542.917" cy="309.506" rx="0.488" ry="0.977"/>
		
			<ellipse transform="matrix(-0.8386 -0.5447 0.5447 -0.8386 823.7908 870.787)" fill="#212104" cx="540.894" cy="313.357" rx="0.489" ry="0.976"/>
		
			<ellipse transform="matrix(-0.7036 -0.7106 0.7106 -0.7036 691.6432 921.4971)" fill="#212104" cx="538.008" cy="316.5" rx="0.488" ry="0.976"/>
		
			<ellipse transform="matrix(-0.9999 -0.017 0.017 -0.9999 1067.5862 651.8124)" fill="#212104" cx="536.566" cy="321.365" rx="0.488" ry="0.976"/>
		
			<ellipse transform="matrix(-0.9926 0.1211 -0.1211 -0.9926 1109.5842 583.8257)" fill="#212104" cx="537.055" cy="325.624" rx="0.488" ry="0.975"/>
		
			<ellipse transform="matrix(-0.9743 0.2253 -0.2253 -0.9743 1135.4702 528.9686)" fill="#212104" cx="537.553" cy="329.272" rx="0.488" ry="0.977"/>
	</g>
</g>
<g>
	<circle opacity="0.4" fill="#100D0A" cx="398.826" cy="272.492" r="2.836"/>
	<circle fill="#AF8A6E" cx="399.316" cy="271.117" r="2.836"/>
</g>
<g>
	<circle opacity="0.4" fill="#100D0A" cx="239.297" cy="272.107" r="2.836"/>
	<circle fill="#AF8A6E" cx="240" cy="270.732" r="2.836"/>
</g>
<polygon fill="#FFFFFF" points="328.644,229.905 328.644,229.905 327,229.905 327,229.905 327,229.905 327,229.905 328.644,229.905 
	328.644,229.905 "/>
<g>
	<g>
		<rect x="323.618" y="69.383" fill="#FFFFFF" width="84.667" height="85.999"/>
		<path fill="#EBDDD1" d="M409.784,156.882h-87.667V67.883h87.667V156.882z M325.118,153.882h81.667V70.883h-81.667V153.882z"/>
	</g>
	<g>
		<rect x="331.974" y="78.953" fill="#FFFFFF" width="67" height="67.313"/>
		<path opacity="0.8" fill="#EBDDD1" d="M399.349,146.641h-67.75V78.578h67.75V146.641z M332.349,145.891h66.25V79.328h-66.25
			V145.891z"/>
	</g>
</g>
<g>
	<path fill="#442221" d="M406.334,338.668l-9.854,2.974l4.386,19.852l6.988-12.314C407.003,343.399,406.334,338.668,406.334,338.668
		z"/>
	<path fill="#59332B" d="M417.872,417.366c-0.131-1.371-7.042-47.986-10.059-68.469l-7.025,12.23l12.412,57.677
		c0,0,0.338,5.114,3.637,4.471C419.386,422.778,418.041,419.125,417.872,417.366z"/>
	<polygon fill="#25100B" points="327.674,352.346 295.511,351.876 295.511,359.876 313.304,360.655 352.611,362.376 
		352.611,352.709 	"/>
	<polygon fill="#4F302F" points="360.845,351.375 360.845,361.209 365.138,359.796 371.584,348.825 	"/>
	<path fill="#5C3A37" d="M396.759,342.828l-25.968,6.322c-1.698,3.636-3.629,7.228-5.653,10.646l32.999-10.987L396.759,342.828z"/>
	<path fill="#59332B" d="M275.177,433.154c0,0,2.333,3.181,5.167,0.954l14.03-66.307c-3.273,1.947-6.343,3.928-9.323,6.052
		L275.177,433.154z"/>
	<path fill="#3D1E1B" d="M288.844,351.075l-3.793,22.778c2.979-2.124,6.05-4.104,9.323-6.052l3.303-15.612L288.844,351.075z"/>
	<path fill="#3D1E1B" d="M361,349.708l-8.989,0.667l0.271,17.098c2.963,1.715,5.661,3.164,8.563,4.817L361,349.708z"/>
	<path fill="#59332B" d="M352.282,367.473l1.17,73.879c0,0,2.976,4.523,7.393,0.356V372.29
		C357.943,370.637,355.245,369.188,352.282,367.473z"/>
	<g>
		<path fill="#6D787F" d="M344.974,257.947c-4.759-1.771-23.768,0.95-46.546,1.195c-23.25,0.25-35.5-4.25-35.5-4.25
			c-0.009-0.001-0.016,0.002-0.025,0.001c7.666,32.582,13.236,72.833,45.393,87.449c16.472,6.863,33.99,9.32,51.693,8.732
			C364.337,319.654,357.071,286.508,344.974,257.947z"/>
		<path fill="#98A6AF" d="M403.177,291.893c-5.75-0.5-32.916,4.667-37.75-8.75c-6.064-16.833-15.916-23.083-20.166-25.083
			c-0.086-0.041-0.188-0.076-0.287-0.112c12.098,28.561,14.936,60.862,15.015,93.128c2.87-0.096,5.745-0.263,8.621-0.513
			c34.015-5.227,44.567-16.17,44.567-16.17C413.427,309.143,408.927,292.393,403.177,291.893z"/>
		<path fill="#5D656D" d="M308.295,342.343c-32.157-14.616-37.727-54.867-45.393-87.449c-3.576-0.295-3.411,7.554-3.411,7.554
			s3.761,36.821,8.936,62.695c4.875,24.375,10.67,24.527,13.25,25.569c2.737,1.105,4.993,1.271,38.448,2.678
			c20.187,0.849,35.438-0.452,48.484-2.827C347.993,352.356,327.438,350.318,308.295,342.343z"/>
		<g>
			<path fill="#515C60" d="M360.405,351.086l-1-0.004c0.148-32.478-3.828-55.98-7.189-69.978
				c-3.641-15.165-7.366-23.192-7.403-23.268l1.045,0.301C346.008,258.438,360.689,288.668,360.405,351.086z"/>
		</g>
	</g>
</g>
<g>
	<g>
		<g>
			<polygon fill="#424242" points="459.752,21.207 458.064,21.207 458.064,78.106 459.752,79.794 			"/>
			<polygon fill="#111110" points="458.064,78.106 458.064,103.804 459.752,103.804 459.752,79.794 			"/>
		</g>
		<g>
			<path fill="#1E1E1D" d="M463.375,117.022c0,2.406-1.951,4.357-4.357,4.357l0,0c-2.407,0-4.358-1.951-4.358-4.357v-9.278
				c0-2.406,1.951-4.357,4.358-4.357l0,0c2.406,0,4.357,1.951,4.357,4.357V117.022z"/>
		</g>
		<polygon fill="#2D2D2D" points="484.133,150.616 433.8,150.616 454.764,118.366 463.266,118.366 		"/>
		<polygon opacity="0.4" fill="#EAE7E4" points="457.088,118.366 444.8,150.616 453.963,150.616 458.064,118.366 		"/>
		<path fill="#424242" d="M457.088,118.366h0.977c0,0,0-14.698,0-14.838s-0.908,0.276-0.908,0.276L457.088,118.366z"/>
	</g>
	<ellipse fill="#111110" cx="458.966" cy="150.617" rx="25.167" ry="1.237"/>
</g>
<g>
	<g>
		<g>
			<path fill="#424242" d="M531.516,45.007h-1.187v32.946c0.385,0.57,0.779,1.136,1.187,1.695V45.007z"/>
			<path fill="#111110" d="M530.329,77.954v25.151h1.187V79.648C531.108,79.089,530.714,78.524,530.329,77.954z"/>
		</g>
		<g>
			<path fill="#1E1E1D" d="M534.064,112.402c0,1.692-1.372,3.065-3.065,3.065l0,0c-1.692,0-3.065-1.373-3.065-3.065v-6.526
				c0-1.692,1.373-3.064,3.065-3.064l0,0c1.693,0,3.065,1.372,3.065,3.064V112.402z"/>
		</g>
		<polygon fill="#2D2D2D" points="548.665,136.032 513.262,136.032 528.008,113.348 533.987,113.348 		"/>
		<polygon opacity="0.4" fill="#EAE7E4" points="529.643,113.348 520.999,136.032 527.444,136.032 530.329,113.348 		"/>
		<path fill="#424242" d="M529.643,113.348h0.687c0,0,0-10.338,0-10.437s-0.639,0.194-0.639,0.194L529.643,113.348z"/>
	</g>
	<ellipse fill="#111110" cx="530.963" cy="136.032" rx="17.702" ry="0.871"/>
</g>
<g>
	<polygon opacity="0.1" fill="#272117" points="407.809,253.546 420.104,250.267 409.215,250.267 	"/>
	<g>
		<path fill="#A3825A" d="M407.213,234.743v19.1c1.234-0.311,2.002-0.782,2.002-1.484v-17.967
			C409.215,234.392,408.417,234.566,407.213,234.743z"/>
		<path fill="#F6E7C8" d="M404.857,235.012v19.206c0.896-0.082,1.691-0.205,2.355-0.375v-19.1
			C406.534,234.842,405.729,234.942,404.857,235.012z"/>
		<path fill="#756243" d="M395.081,234.392v17.967c0,0.527,0.441,0.921,1.178,1.218v-18.965
			C395.536,234.49,395.081,234.392,395.081,234.392z"/>
		<path fill="#4D3F1F" d="M396.259,234.612v18.965c0.36,0.146,0.805,0.264,1.296,0.365v-19.136
			C397.069,234.742,396.623,234.674,396.259,234.612z"/>
		<path fill="#806334" d="M399.792,235.038c-0.814-0.056-1.569-0.141-2.237-0.231v19.136c0.654,0.135,1.4,0.236,2.237,0.305V235.038
			z"/>
		<path fill="#C0A57A" d="M399.792,235.038v19.209c0.415,0.033,0.851,0.059,1.296,0.076v-19.228
			C400.65,235.085,400.215,235.067,399.792,235.038z"/>
		<path fill="#4D3F1F" d="M401.088,235.095v19.228c0.346,0.018,0.697,0.031,1.061,0.039V235.1
			C401.794,235.108,401.439,235.104,401.088,235.095z"/>
		<path fill="#806334" d="M402.148,235.1v19.262c0.96-0.021,1.875-0.068,2.709-0.145v-19.206
			C403.992,235.081,403.068,235.122,402.148,235.1z"/>
		<ellipse fill="#111110" cx="402.148" cy="234.392" rx="7.067" ry="0.706"/>
	</g>
</g>
<g>
	<g>
		<g>
			<path fill="#FFFFFF" d="M211.868,245.442h33.852c0.248,0,0.489,0.013,0.727,0.031c-0.881,0.816-1.439,2.044-1.439,3.418
				c0,1.372,0.559,2.6,1.439,3.417c-0.237,0.019-0.479,0.03-0.727,0.03h-33.852c-2.366,0-4.551-0.89-4.551-1.989v-2.917
				C207.317,246.335,209.502,245.442,211.868,245.442z"/>
			<path fill="#777DA0" d="M211.733,245.15h33.853c0.405,0,0.8,0.026,1.177,0.07c-0.193,0.167-0.373,0.35-0.539,0.543
				c-0.209-0.016-0.421-0.026-0.638-0.026h-33.853c-2.139,0-4.016,0.793-4.016,1.695v2.917c0,0.904,1.877,1.694,4.016,1.694h33.853
				c0.228,0,0.448-0.01,0.665-0.026c0.17,0.191,0.353,0.372,0.549,0.539c-0.389,0.049-0.794,0.075-1.214,0.075h-33.853
				c-2.758,0-5.086-1.045-5.086-2.282v-2.917C206.647,246.194,208.976,245.15,211.733,245.15z"/>
		</g>
		<polygon opacity="0.6" fill="#CECFD1" points="225.93,247.976 222.985,247.976 223.335,250.429 		"/>
		<polygon fill="#BCBAB3" points="225.93,247.976 222.985,247.976 222.985,249.809 		"/>
	</g>
	<path opacity="0.6" fill="#CECFD1" d="M246.162,245.764l-3.565,0.612c0,0-31.541-0.157-32.697,0.904
		c-0.832,0.769-1.063,2.463-0.544,3.728c0.199,0.485,1.239,0.632,1.499,0.998c0,0-1.95-0.21-2.848-0.904
		c-0.602-0.468-0.327-1.102-0.338-2.028c-0.005-0.771-0.231-1.49,0.165-2.088c0.397-0.6,1.466-1.107,3.464-1.242L246.162,245.764z"
		/>
</g>
<g>
	<circle opacity="0.4" fill="#C6C6C6" cx="107.788" cy="173.736" r="41.807"/>
	<circle fill="#333533" cx="104.977" cy="170.238" r="40.073"/>
	<path fill="#FFFFFF" d="M104.977,132.176c-21.264,0-38.5,17.237-38.5,38.501c0,1.815,0.134,3.599,0.377,5.348
		c2.605,18.73,18.675,33.152,38.123,33.152c19.447,0,35.518-14.422,38.122-33.152c0.243-1.749,0.378-3.532,0.378-5.348
		C143.477,149.413,126.24,132.176,104.977,132.176z"/>
	<g>
		<g>
			<polygon fill="#333533" points="111.048,177.025 108.464,177.994 91.35,146.349 92.48,146.349 			"/>
		</g>
		<g>
			<polygon fill="#333533" points="111.048,164.109 112.662,165.723 78.272,193.009 78.272,192.04 			"/>
		</g>
		<g>
			
				<rect x="105.744" y="155.982" transform="matrix(-0.9975 0.0703 -0.0703 -0.9975 224.4769 347.6055)" fill="#333533" width="0.757" height="43.539"/>
		</g>
	</g>
	<g>
		<path fill="#100D0A" d="M104.144,134.814v8.256h-0.625v-7.62h-0.507v-0.637H104.144z M103.059,134.873v0.519h0.519v7.62h0.507
			v-8.139H103.059z M103.979,134.979v7.927h-0.295v-7.631h-0.531v-0.295H103.979z"/>
		<path fill="#100D0A" d="M107.788,137.598c-0.011,0.602-0.554,1.109-1.144,1.663c-0.543,0.496-1.05,0.991-1.074,1.463v1.698h2.217
			v0.649h-2.842v-2.359c0.036-0.743,0.661-1.356,1.286-1.923c0.46-0.413,0.932-0.896,0.944-1.191v-1.262
			c0-0.731-0.39-0.956-0.767-0.956c-0.531,0-0.802,0.413-0.802,0.991v0.637h-0.602v-0.661c0-1.144,0.743-1.604,1.403-1.604
			c0.614,0,1.38,0.413,1.38,1.581V137.598z M107.729,136.324c0-1.132-0.743-1.521-1.321-1.521c-0.648,0-1.345,0.448-1.345,1.544
			v0.602h0.483v-0.578c0-0.613,0.295-1.049,0.861-1.049c0.401,0,0.838,0.236,0.838,1.014v1.262
			c-0.012,0.319-0.507,0.814-0.968,1.227c-0.601,0.542-1.238,1.191-1.273,1.887v2.3h2.725v-0.531h-2.217v-1.769
			c0.023-0.483,0.554-0.979,1.085-1.486c0.59-0.542,1.132-1.05,1.132-1.628V136.324z M107.635,137.598
			c-0.012,0.531-0.542,1.015-1.097,1.534c-0.566,0.531-1.108,1.038-1.132,1.581c0,0.118,0,1.321,0,1.887h2.229v0.307h-2.524
			c0-0.165,0-2.029,0-2.194c0.036-0.672,0.625-1.238,1.227-1.793c0.496-0.448,1.002-0.955,1.015-1.321v-1.262
			c0-0.873-0.484-1.132-0.944-1.132c-0.636,0-0.967,0.496-0.967,1.167v0.46h-0.271v-0.484c0-1.014,0.648-1.438,1.238-1.438
			c0.543,0,1.227,0.366,1.227,1.416V137.598z"/>
	</g>
	<g>
		<path fill="#100D0A" d="M137.118,170.239h0.448c0.531-0.035,0.802-0.531,0.802-1.097v-1.687c0-0.661-0.319-0.967-0.743-0.967
			c-0.543,0-0.85,0.389-0.85,0.979v0.648h-0.59v-0.661c0-1.25,0.778-1.592,1.439-1.592c0.731,0,1.368,0.495,1.368,1.581v1.698
			c0,0.708-0.188,1.05-0.578,1.38c0.519,0.295,0.673,0.92,0.673,1.569v0.46c0,0.956-0.542,1.758-1.486,1.758
			c-0.885,0-1.51-0.72-1.51-1.746v-0.743h0.601v0.743c0,0.649,0.331,1.085,0.909,1.085c0.542,0,0.872-0.448,0.872-1.097v-0.46
			c0-0.637-0.224-1.204-0.896-1.204h-0.46V170.239z M137.176,170.829h0.401c0.708,0,0.955,0.59,0.955,1.262v0.46
			c0,0.672-0.354,1.156-0.931,1.156c-0.614,0-0.968-0.46-0.968-1.144v-0.685h-0.483v0.685c0,0.99,0.602,1.687,1.452,1.687
			c0.908,0,1.427-0.755,1.427-1.698v-0.46c0-0.731-0.212-1.274-0.708-1.557c0.436-0.33,0.613-0.791,0.613-1.392v-1.698
			c0-1.05-0.601-1.533-1.309-1.533c-0.637,0-1.38,0.342-1.38,1.545v0.602h0.483v-0.589c0-0.625,0.319-1.026,0.897-1.026
			c0.436,0,0.801,0.318,0.801,1.014v1.687c0,0.602-0.294,1.121-0.86,1.156h-0.39V170.829z M137.283,170.404h0.295
			c0.625-0.023,0.955-0.602,0.955-1.262v-1.687c0-0.767-0.4-1.132-0.908-1.132c-0.637,0-1.002,0.448-1.002,1.145v0.472h-0.271
			v-0.484c0-1.109,0.696-1.427,1.274-1.427c0.648,0,1.203,0.437,1.203,1.416v1.698c0,0.613-0.236,1.109-0.743,1.404
			c0.589,0.224,0.837,0.767,0.837,1.545v0.46c0,0.873-0.483,1.58-1.32,1.58c-0.791,0-1.345-0.637-1.345-1.568v-0.566h0.271v0.566
			c0,0.755,0.401,1.25,1.074,1.25c0.648,0,1.038-0.52,1.038-1.262v-0.46c0-0.731-0.271-1.38-1.062-1.38h-0.295V170.404z"/>
	</g>
	<g>
		<path fill="#100D0A" d="M106.45,203.774v0.884c-0.023,0.968-0.531,1.734-1.498,1.734c-0.967,0-1.51-0.767-1.51-1.734v-4.93
			c0-0.979,0.602-1.734,1.522-1.734c0.943,0,1.451,0.708,1.451,1.746v0.448h-0.602v-0.448c0-0.649-0.283-1.121-0.849-1.121
			c-0.555,0-0.885,0.425-0.909,1.109v2.678c0.248-0.236,0.613-0.377,0.92-0.377C105.86,202.028,106.45,202.642,106.45,203.774z
			 M103.997,202.547v-2.819c0.023-0.719,0.377-1.156,0.967-1.156c0.601,0,0.896,0.483,0.896,1.167v0.389h0.495v-0.389
			c0-1.002-0.495-1.687-1.391-1.687c-0.885,0-1.462,0.719-1.462,1.675v4.93c0,0.944,0.519,1.675,1.45,1.675
			c0.943,0,1.415-0.72,1.439-1.675v-0.884c0-1.085-0.566-1.687-1.415-1.687C104.633,202.087,104.268,202.252,103.997,202.547z
			 M106.285,203.774v0.884c-0.023,0.885-0.472,1.557-1.333,1.557c-0.861,0-1.345-0.684-1.345-1.557c0-1.262,0-3.88,0-4.93
			c0-0.885,0.531-1.569,1.357-1.569c0.837,0,1.286,0.649,1.286,1.581v0.283h-0.283v-0.283c0-0.755-0.331-1.285-1.002-1.285
			c-0.649,0-1.05,0.483-1.074,1.273v3.126c0.248-0.425,0.696-0.649,1.085-0.649C105.766,202.205,106.285,202.759,106.285,203.774z
			 M106.001,203.774c0-0.873-0.366-1.274-1.026-1.274c-0.673,0-1.074,0.566-1.074,1.262c0-0.023,0,0.661,0,0.896
			c0,0.673,0.366,1.239,1.05,1.239c0.696,0,1.05-0.566,1.05-1.25V203.774z M105.895,204.646c0,0.625-0.318,1.144-0.943,1.144
			c-0.625,0-0.943-0.519-0.943-1.132v-0.896c0-0.637,0.354-1.155,0.967-1.155c0.601,0,0.919,0.377,0.919,1.167V204.646z
			 M105.836,203.774c0-0.755-0.306-1.109-0.86-1.109c-0.578,0-0.92,0.483-0.92,1.097v0.896c0,0.578,0.318,1.073,0.896,1.073
			c0.59,0,0.884-0.495,0.884-1.085V203.774z"/>
	</g>
	<g>
		<path fill="#333533" d="M72.687,172.703c0,0.991-0.566,1.746-1.534,1.746c-0.909,0-1.474-0.813-1.474-1.757v-0.448h0.601v0.448
			c0,0.614,0.319,1.097,0.873,1.097c0.625,0,0.943-0.473,0.943-1.085v-1.793c-0.224,0.249-0.554,0.46-0.896,0.46
			c-1.18,0-1.521-1.132-1.521-2.123v-1.156c0-1.002,0.424-2.064,1.521-2.064c1.073,0,1.486,0.991,1.486,2.076V172.703z
			 M72.628,168.103c0-1.05-0.402-2.017-1.427-2.017c-1.062,0-1.475,1.026-1.475,2.005v1.156c0,0.967,0.331,2.063,1.475,2.063
			c0.377,0,0.731-0.247,0.943-0.554v1.946c0,0.637-0.331,1.144-0.991,1.144c-0.602,0-0.92-0.519-0.92-1.155v-0.401h-0.496v0.401
			c0,0.909,0.543,1.698,1.416,1.698c0.932,0,1.475-0.719,1.475-1.687V168.103z M72.533,172.703c0,0.897-0.507,1.569-1.38,1.569
			c-0.814,0-1.309-0.731-1.309-1.581v-0.283h0.283v0.283c0,0.708,0.365,1.262,1.026,1.262c0.731,0,1.097-0.554,1.097-1.25v-2.395
			c-0.153,0.484-0.543,0.885-1.049,0.885c-1.062,0-1.369-1.038-1.369-1.946c0-0.366,0-0.72,0-1.156c0-0.92,0.389-1.899,1.369-1.899
			c0.956,0,1.333,0.92,1.333,1.911V172.703z M72.226,168.103c0-0.755-0.212-1.593-1.025-1.593c-0.778,0-1.074,0.825-1.074,1.581
			c0,0.719,0,0.118,0,1.156c0,0.636,0.177,1.627,1.074,1.627c0.731,0,1.025-0.967,1.025-1.639V168.103z M72.132,169.235
			c0,0.625-0.283,1.534-0.932,1.534c-0.814,0-0.968-0.933-0.968-1.521v-1.156c0-0.697,0.271-1.462,0.968-1.462
			c0.731,0,0.932,0.778,0.932,1.474V169.235z M72.073,168.103c0-0.673-0.188-1.428-0.873-1.428c-0.661,0-0.909,0.743-0.909,1.416
			v1.156c0,0.565,0.142,1.462,0.909,1.462c0.613,0,0.873-0.874,0.873-1.475V168.103z"/>
	</g>
	<g>
		<path fill="#333533" d="M104.977,195.9c-13.909,0-25.224-11.315-25.224-25.224c0-13.909,11.315-25.224,25.224-25.224
			c13.908,0,25.224,11.315,25.224,25.224C130.201,184.584,118.885,195.9,104.977,195.9z M104.977,145.702
			c-13.771,0-24.974,11.203-24.974,24.974c0,13.771,11.203,24.974,24.974,24.974c13.771,0,24.974-11.203,24.974-24.974
			C129.951,156.905,118.748,145.702,104.977,145.702z"/>
	</g>
</g>
<g>
	<g>
		<rect x="168.507" y="67.569" fill="#F9F9F9" width="122.542" height="150.858"/>
		<path fill="#BDA187" d="M292.549,219.927H167.007V66.069h125.542V219.927z M170.007,216.927h119.542V69.069H170.007V216.927z"/>
	</g>
	<g>
		<rect x="181.28" y="79.794" fill="#F9F9F9" width="96.996" height="127.407"/>
		<path opacity="0.5" fill="#BDA187" d="M278.651,207.576h-97.746V79.419h97.746V207.576z M181.655,206.826h96.246V80.169h-96.246
			V206.826z"/>
	</g>
</g>
<g>
	<polygon opacity="0.1" fill="#272117" points="375.179,255.555 389,249.905 376.493,250.173 	"/>
	<g>
		<g>
			<path fill="#23211F" d="M378.229,248.111v-48.226c0-3.073-2.596-5.564-5.797-5.564h-70.896c-3.202,0-5.798,2.491-5.798,5.564
				v48.226c0,0.729,0.156,1.424,0.423,2.062h81.646C378.073,249.535,378.229,248.84,378.229,248.111z"/>
			<polygon fill="#EAE7E4" points="375.179,254.703 287.619,254.703 296.161,250.173 377.807,250.173 			"/>
			<rect x="287.619" y="254.703" fill="#CCCCCC" width="87.56" height="0.852"/>
			<polygon fill="#CCCCCC" points="375.179,254.703 375.179,255.555 377.807,251.305 377.807,250.173 			"/>
		</g>
		<path fill="#100D0A" d="M376.493,244.666c0,2.137-1.793,3.869-4.004,3.869h-70.565c-2.211,0-4.004-1.732-4.004-3.869v-44.011
			c0-2.136,1.793-3.868,4.004-3.868h70.565c2.211,0,4.004,1.732,4.004,3.868V244.666z"/>
		<polygon fill="#DBD8D7" points="299.098,251.473 296.131,253.404 370.914,253.404 372.942,251.473 		"/>
		<rect x="311.762" y="194.321" opacity="0.1" fill="#CCCCCC" width="5.956" height="55.853"/>
		<rect x="320.775" y="194.321" opacity="0.1" fill="#CCCCCC" width="2.978" height="55.853"/>
	</g>
</g>
<g opacity="0.8">
	<g>
		<path fill="#5B5B5B" d="M247.002,125.931c-7.84-7.218-16.269-9.417-25.051-6.536c-6.562,2.152-10.859,6.478-10.902,6.521
			l-0.583-0.571c0.176-0.18,17.835-17.74,37.089-0.015L247.002,125.931z"/>
	</g>
	<g>
		<path fill="#5B5B5B" d="M228.018,135.867c-0.089,0-0.179,0-0.269-0.001c-15.359-0.141-20.274-15.918-20.322-16.078l0.782-0.235
			c0.046,0.153,4.796,15.361,19.547,15.496c12.725,0.11,18.736-8.388,21.17-13.468l0.393,0.125l0.368,0.177
			C247.162,127.152,241.034,135.867,228.018,135.867z"/>
	</g>
	<g>
		<circle fill="#5B5B5B" cx="228.864" cy="127.309" r="2.298"/>
	</g>
	<g>
		<path fill="#5B5B5B" d="M215.723,122.031c-2.972-2.26-3.431-5.613-3.45-5.754l0.81-0.104c0.004,0.031,0.442,3.161,3.134,5.208
			L215.723,122.031z"/>
	</g>
	<g>
		<path fill="#5B5B5B" d="M221.866,119.509c-2.086-2.389-1.894-5.258-1.884-5.379l0.814,0.061c-0.002,0.026-0.169,2.658,1.685,4.782
			L221.866,119.509z"/>
	</g>
	<g>
		<path fill="#5B5B5B" d="M236.005,119.037l-0.608-0.545c1.834-2.051,1.655-4.604,1.652-4.629l0.813-0.067
			C237.872,113.914,238.081,116.716,236.005,119.037z"/>
	</g>
	<g>
		<path fill="#5B5B5B" d="M242.448,122.029l-0.499-0.647c2.17-1.672,2.404-3.624,2.406-3.644l0.812,0.083
			C245.159,117.915,244.912,120.13,242.448,122.029z"/>
	</g>
	<g>
		<rect x="228.161" y="113.83" fill="#5B5B5B" width="0.816" height="3.951"/>
	</g>
</g>
<g>
	<g opacity="0.8">
		<path fill="#5B5B5B" d="M210.113,160.047c7.84,7.217,16.269,9.417,25.051,6.536c6.562-2.152,10.859-6.478,10.902-6.521
			l0.583,0.571c-0.176,0.18-17.835,17.74-37.089,0.015L210.113,160.047z"/>
	</g>
	<g opacity="0.8">
		<path fill="#5B5B5B" d="M229.097,150.111c0.089,0,0.179,0,0.269,0.001c15.359,0.141,20.274,15.918,20.322,16.078l-0.782,0.235
			c-0.046-0.153-4.796-15.361-19.547-15.496c-12.725-0.11-18.736,8.388-21.17,13.468l-0.393-0.125l-0.368-0.176
			C209.953,158.826,216.082,150.111,229.097,150.111z"/>
	</g>
	<g opacity="0.8">
		<path fill="#5B5B5B" d="M241.392,163.947c2.973,2.26,3.431,5.613,3.45,5.754l-0.81,0.104c-0.004-0.031-0.442-3.161-3.134-5.208
			L241.392,163.947z"/>
	</g>
	<g opacity="0.8">
		<path fill="#5B5B5B" d="M235.249,166.469c2.086,2.389,1.894,5.258,1.884,5.379l-0.814-0.061c0.002-0.026,0.169-2.658-1.685-4.782
			L235.249,166.469z"/>
	</g>
	<g opacity="0.8">
		<path fill="#5B5B5B" d="M221.11,166.941l0.608,0.545c-1.834,2.051-1.654,4.604-1.652,4.629l-0.813,0.067
			C219.243,172.064,219.034,169.262,221.11,166.941z"/>
	</g>
	<g opacity="0.8">
		<path fill="#5B5B5B" d="M214.667,163.949l0.499,0.647c-2.17,1.672-2.404,3.624-2.406,3.644l-0.812-0.083
			C211.956,168.063,212.203,165.848,214.667,163.949z"/>
	</g>
	<g opacity="0.8">
		<rect x="228.137" y="168.197" fill="#5B5B5B" width="0.816" height="3.951"/>
	</g>
</g>
<g opacity="0.8">
	<g>
		<path fill="#5B5B5B" d="M381.855,112.032c-7.84-7.218-16.27-9.417-25.051-6.536c-6.562,2.152-10.859,6.478-10.902,6.521
			l-0.583-0.571c0.176-0.18,17.834-17.74,37.088-0.015L381.855,112.032z"/>
	</g>
	<g>
		<path fill="#5B5B5B" d="M381.75,111.2h0.368H381.75c-3.216,4.735-9.07,10.037-19.141,9.95c-14.75-0.135-19.5-15.343-19.546-15.496
			l-0.782,0.235c0.048,0.159,4.963,15.937,20.322,16.078c0.091,0.001,0.18,0.001,0.269,0.001c10.553,0,16.289-5.408,19.537-10.385
			c0,0-0.408-0.365-0.503-0.612C381.762,111.197,381.905,110.972,381.75,111.2z"/>
	</g>
	<g>
		<path fill="#5B5B5B" d="M365.066,111.583h-3.198c-0.43,0.417-0.699,1-0.699,1.646c0,1.27,1.029,2.298,2.299,2.298
			c1.269,0,2.298-1.028,2.298-2.298C365.766,112.583,365.496,112.001,365.066,111.583z"/>
	</g>
	<g>
		<polygon fill="#5B5B5B" points="381.594,112.532 345.902,112.518 345.902,111.518 381.855,111.532 		"/>
	</g>
</g>
</svg>
